<svg width="20" height="19" viewBox="0 0 20 19" fill="none" xmlns="http://www.w3.org/2000/svg">
<path fill-rule="evenodd" clip-rule="evenodd" d="M8.03957 2.2709L1.15158 15.9413C0.942631 16.2985 0.922783 16.7356 1.09849 17.1102C1.27419 17.4849 1.62295 17.7491 2.03117 17.8169C2.1668 17.8122 2.29999 17.7795 2.42237 17.7209L8.71037 15.1181C9.12785 14.9875 9.56177 14.9164 9.99917 14.9069C10.4366 14.9163 10.8705 14.9874 11.288 15.1181L17.576 17.7209C17.6984 17.7795 17.8316 17.8122 17.9672 17.8169C18.3748 17.7487 18.7229 17.4845 18.8983 17.1102C19.0737 16.736 19.0539 16.2994 18.8456 15.9425L11.9576 2.2709C11.6035 1.50854 10.8392 1.02086 9.99857 1.02086C9.15797 1.02086 8.39369 1.50854 8.03957 2.2709Z" stroke="#36D1AC" stroke-linecap="round" stroke-linejoin="round"/>
</svg>
